<?xml version="1.0" encoding="utf-8"?>
<!-- Generator: Adobe Illustrator 16.0.3, SVG Export Plug-In . SVG Version: 6.00 Build 0)  -->
<!DOCTYPE svg PUBLIC "-//W3C//DTD SVG 1.1//EN" "http://www.w3.org/Graphics/SVG/1.1/DTD/svg11.dtd">
<svg version="1.1" id="Layer_1" xmlns="http://www.w3.org/2000/svg" xmlns:xlink="http://www.w3.org/1999/xlink" x="0px" y="0px"
	 width="146px" height="146px" viewBox="0 0 146 146" enable-background="new 0 0 146 146" xml:space="preserve">
<g>
	<defs>
		<rect id="SVGID_1_" width="146" height="146"/>
	</defs>
	<clipPath id="SVGID_2_">
		<use xlink:href="#SVGID_1_"  overflow="visible"/>
	</clipPath>
	<path clip-path="url(#SVGID_2_)" fill="#F04B24" d="M143.917,57.332v1.122c0,3.828-3.087,6.945-6.885,6.945h-4.805
		c-3.438,0-6.287-2.541-6.802-5.865c0,0-0.031-0.741-0.083-1.296c-0.185-1.873-0.679-3.653-1.42-5.3
		c-2.654-5.855-8.561-9.929-15.414-9.929H61.062c-4.918,0-9.343,2.099-12.43,5.453H28.353c4.329-12.469,16.873-20.6,30.085-20.6
		h53.148c6.204,0,11.998,1.739,16.927,4.754c5.69,3.488,10.229,8.674,12.894,14.859C142.733,50.551,143.598,53.865,143.917,57.332"
		/>
	<path clip-path="url(#SVGID_2_)" fill="#F04B24" d="M144.03,110.676c0.021,0.37,0.021,0.739,0.021,1.121
		c0,17.925-14.531,32.465-32.466,32.465H58.438c-11.916,0-24.125-6.683-30.339-20.221h20.872c3.077,3.129,7.357,5.073,12.091,5.073
		h47.447c9.343,0,16.917-7.574,16.917-16.917c0-2.479-0.536-4.867-1.493-7.048c-2.645-6.061-8.562-10.486-15.424-10.486h-0.237
		c0,0-10.177-0.009-0.607-0.009l-49.227-0.021c-9.58,0-18.193-4.146-24.13-10.742c-0.432-0.484-0.844-0.968-1.245-1.472
		c-1.76-2.191-4.364-6.259-4.943-9.024h22.528c2.871,2.285,6.493,3.674,10.424,3.674l50.514,0.01c6.05,0,11.72,1.657,16.566,4.537
		c2.923,1.74,5.557,3.932,7.8,6.474c0.35,0.391,0.679,0.792,1.009,1.204c4.435,5.557,7.091,12.595,7.091,20.25
		C144.052,109.924,144.052,110.305,144.03,110.676"/>
	<path clip-path="url(#SVGID_2_)" fill="#9A6B58" d="M21.415,69.278h65.588c3.982,0,7.635,1.379,10.526,3.684h10.97
		c3.498,0,6.956,0.504,10.259,1.472c-2.254-5.31-5.886-9.9-10.444-13.316c3.046-2.295,5.68-5.104,7.769-8.304
		c-2.284-3.457-6.226-5.69-10.66-5.69h-5.988c-3.088,3.354-7.512,5.453-12.431,5.453H21.446l-0.031-33.843h65.352
		c0.051,0,0.093,0,0.144,0.01h0.093c4.692,0,8.942,1.914,12.009,5.001h9.487c3.992,0,7.861,0.648,11.514,1.863
		c-4.023-13.48-16.515-23.307-31.312-23.307L2.112,2.31C2.096,2.327,2.111,119.543,2.111,119.543l86.59,0.383
		c11.504,0,21.629-5.947,27.453-14.932c-2.305-3.704-6.298-6.215-10.732-6.215h-2.593c-0.483,0-0.998,0-1.533-0.031h-2.943
		c-3.005,2.706-6.986,4.364-11.35,4.364H21.415V69.278z"/>
</g>
</svg>
